# xmcd CD database file
#
# Track frame offsets:
#	150
#	46647
#	57224
#	97662
#	141141
#	166141
#	186665
#	199904
#
# Disc length: 2914 seconds
#
# Revision: 0
# Processed by: cddbd v1.5.1PL0 Copyright (c) Steve Scherf et al.
# Submitted via: cdripper 1,0,15,908
#
DISCID=650b6008
DTITLE=Miho Yamaji - Refrain
DYEAR=1999
DGENRE=New Age
TTITLE0=Sanka (Hymn)
TTITLE1=Kinjirareta Asobi (Romance)
TTITLE2=Midare
TTITLE3=Houshun (The First Signs of Spring)
TTITLE4=Refrain
TTITLE5=Ichikotu (first movement)
TTITLE6=Ichikotu (second movement)
TTITLE7=Ichikotu (third movement)
EXTD=YEAR: 1999
EXTT0=
EXTT1=
EXTT2=
EXTT3=
EXTT4=
EXTT5=
EXTT6=
EXTT7=
PLAYORDER=
